<?xml version="1.0" encoding="UTF-8"?>
<svg xmlns="http://www.w3.org/2000/svg" xmlns:xlink="http://www.w3.org/1999/xlink" viewBox="0 0 48 48" width="48px" height="48px">
<g id="surface22002212">
<path style="stroke:none;fill-rule:nonzero;fill:rgb(90.588236%,29.803923%,23.529412%);fill-opacity:1;" d="M 21.800781 4.199219 C 12.601562 5.199219 5.199219 12.601562 4.199219 21.601562 C 3.199219 31 8.601562 39.398438 16.800781 42.601562 C 17.398438 42.800781 18 42.398438 18 41.601562 L 18 38.398438 C 18 38.398438 17.199219 38.601562 16.199219 38.601562 C 13.398438 38.601562 12.199219 36.199219 12 34.800781 C 11.800781 34 11.398438 33.398438 10.800781 32.800781 C 10.199219 32.601562 10 32.601562 10 32.398438 C 10 32 10.601562 32 10.800781 32 C 12 32 13 33.398438 13.398438 34 C 14.398438 35.601562 15.601562 36 16.199219 36 C 17 36 17.601562 35.800781 18 35.601562 C 18.199219 34.199219 18.800781 32.800781 20 32 C 15.398438 31 12 28.398438 12 24 C 12 21.800781 13 19.601562 14.398438 18 C 14.199219 17.601562 14 16.601562 14 15.199219 C 14 14.398438 14 13.199219 14.601562 12 C 14.601562 12 17.398438 12 20.199219 14.601562 C 21.199219 14.199219 22.601562 14 24 14 C 25.398438 14 26.800781 14.199219 28 14.601562 C 30.601562 12 33.601562 12 33.601562 12 C 34 13.199219 34 14.398438 34 15.199219 C 34 16.800781 33.800781 17.601562 33.601562 18 C 35 19.601562 36 21.601562 36 24 C 36 28.398438 32.601562 31 28 32 C 29.199219 33 30 34.800781 30 36.601562 L 30 41.800781 C 30 42.398438 30.601562 43 31.398438 42.800781 C 38.800781 39.800781 44 32.601562 44 24.199219 C 44 12.199219 33.800781 2.800781 21.800781 4.199219 Z M 21.800781 4.199219 "/>
</g>
</svg>
