<?xml version="1.0" encoding="UTF-8"?>
<svg xmlns="http://www.w3.org/2000/svg" xmlns:xlink="http://www.w3.org/1999/xlink" viewBox="0 0 16 16" width="16px" height="16px">
<g id="surface22452513">
<path style=" stroke:none;fill-rule:nonzero;fill:rgb(23.137255%,50.980395%,96.470588%);fill-opacity:1;" d="M 8 2 C 5.960938 2 4.15625 2.210938 3.058594 2.375 C 2.160156 2.507812 1.445312 3.210938 1.28125 4.113281 C 1.140625 4.902344 1 6.054688 1 7.5 C 1 8.945312 1.140625 10.097656 1.28125 10.886719 C 1.445312 11.789062 2.160156 12.488281 3.058594 12.625 C 4.160156 12.789062 5.972656 13 8 13 C 10.027344 13 11.835938 12.789062 12.9375 12.625 L 12.941406 12.625 C 13.839844 12.492188 14.554688 11.789062 14.71875 10.886719 C 14.859375 10.09375 15 8.941406 15 7.5 C 15 6.054688 14.859375 4.902344 14.714844 4.113281 C 14.554688 3.210938 13.839844 2.507812 12.941406 2.375 C 11.84375 2.210938 10.039062 2 8 2 Z M 8 3 C 9.96875 3 11.730469 3.203125 12.792969 3.363281 C 13.261719 3.433594 13.640625 3.800781 13.730469 4.289062 C 13.863281 5.027344 14 6.121094 14 7.5 C 14 8.878906 13.863281 9.972656 13.734375 10.707031 C 13.644531 11.199219 13.265625 11.566406 12.792969 11.636719 C 11.722656 11.792969 9.957031 12 8 12 C 6.042969 12 4.273438 11.792969 3.207031 11.636719 C 2.738281 11.566406 2.355469 11.199219 2.265625 10.707031 C 2.136719 9.96875 2 8.878906 2 7.5 C 2 6.117188 2.136719 5.027344 2.265625 4.289062 C 2.355469 3.800781 2.734375 3.433594 3.203125 3.367188 L 3.207031 3.367188 C 4.269531 3.207031 6.03125 3 8 3 Z M 6 5 L 6 10 L 11 7.5 Z M 6 5 "/>
</g>
</svg>
